<mxfile host="app.diagrams.net" agent="Mozilla/5.0 (Windows NT 10.0; Win64; x64) AppleWebKit/537.36 (KHTML, like Gecko) Chrome/129.0.0.0 Safari/537.36" version="24.7.14">
  <diagram name="Страница — 1" id="eTPCyulgEMQGkj-4sTij">
    <mxGraphModel dx="875" dy="1604" grid="1" gridSize="10" guides="1" tooltips="1" connect="1" arrows="1" fold="1" page="1" pageScale="1" pageWidth="827" pageHeight="1169" math="0" shadow="0">
      <root>
        <mxCell id="0" />
        <mxCell id="1" parent="0" />
        <mxCell id="a7qT2igJazvT0XZEEzCW-2" value="&lt;div style=&quot;font-size: 10px;&quot;&gt;&lt;font style=&quot;font-size: 10px;&quot;&gt;**************************************&lt;/font&gt;&lt;/div&gt;&lt;div style=&quot;&quot;&gt;&lt;font style=&quot;&quot;&gt;&lt;font style=&quot;font-size: 10px;&quot;&gt;* &lt;/font&gt;&lt;font style=&quot;font-size: 10px;&quot;&gt;Лабораторная работа №2. Задание №1&lt;/font&gt;&lt;font style=&quot;font-size: 10px;&quot;&gt; *&lt;/font&gt;&lt;/font&gt;&lt;/div&gt;&lt;div style=&quot;font-size: 10px;&quot;&gt;&lt;font style=&quot;font-size: 10px;&quot;&gt;**************************************&lt;/font&gt;&lt;/div&gt;" style="rounded=0;whiteSpace=wrap;html=1;" vertex="1" parent="1">
          <mxGeometry x="30" width="160" height="50" as="geometry" />
        </mxCell>
        <mxCell id="a7qT2igJazvT0XZEEzCW-3" value="&lt;font style=&quot;font-size: 10px;&quot;&gt;Введите число строк(n) и столбцов(m) матрицы&lt;/font&gt;" style="rounded=0;whiteSpace=wrap;html=1;align=left;" vertex="1" parent="1">
          <mxGeometry x="40" y="60" width="140" height="30" as="geometry" />
        </mxCell>
        <mxCell id="a7qT2igJazvT0XZEEzCW-4" value="" style="verticalLabelPosition=bottom;verticalAlign=top;html=1;shape=mxgraph.basic.star;fillColor=#000000;" vertex="1" parent="1">
          <mxGeometry x="180" y="60" width="10.91" height="10" as="geometry" />
        </mxCell>
        <mxCell id="a7qT2igJazvT0XZEEzCW-5" value="" style="strokeWidth=2;html=1;shape=mxgraph.flowchart.annotation_2;align=left;labelPosition=right;pointerEvents=1;" vertex="1" parent="1">
          <mxGeometry x="20" y="60" width="10" height="30" as="geometry" />
        </mxCell>
        <mxCell id="a7qT2igJazvT0XZEEzCW-6" value="" style="strokeWidth=2;html=1;shape=mxgraph.flowchart.annotation_2;align=left;labelPosition=right;pointerEvents=1;direction=west;" vertex="1" parent="1">
          <mxGeometry x="190" y="60" width="15" height="30" as="geometry" />
        </mxCell>
        <mxCell id="a7qT2igJazvT0XZEEzCW-7" value="&lt;font style=&quot;font-size: 10px;&quot;&gt;До n &amp;gt; 0 и n &amp;lt; lmax и m &amp;gt; 0 и m &amp;lt; lmax и количество переменных == 2&lt;/font&gt;" style="text;html=1;align=center;verticalAlign=middle;resizable=0;points=[];autosize=1;strokeColor=none;fillColor=none;" vertex="1" parent="1">
          <mxGeometry x="10.46" y="90" width="350" height="30" as="geometry" />
        </mxCell>
        <mxCell id="a7qT2igJazvT0XZEEzCW-8" value="" style="rounded=0;whiteSpace=wrap;html=1;align=left;" vertex="1" parent="1">
          <mxGeometry x="30" y="120" width="200" height="50" as="geometry" />
        </mxCell>
        <mxCell id="a7qT2igJazvT0XZEEzCW-12" value="&lt;span style=&quot;font-size: 10px; text-align: left;&quot;&gt;Введите элементы матрицы:&lt;/span&gt;" style="text;html=1;align=center;verticalAlign=middle;whiteSpace=wrap;rounded=0;" vertex="1" parent="1">
          <mxGeometry x="20" y="120" width="160" height="30" as="geometry" />
        </mxCell>
        <mxCell id="a7qT2igJazvT0XZEEzCW-13" value="&amp;lt;A[0][0]&amp;gt;, &amp;lt;A[0][1]&amp;gt; ... &amp;lt;A[n -1][m - 1]&amp;gt;" style="text;html=1;align=center;verticalAlign=middle;whiteSpace=wrap;rounded=0;fontSize=10;" vertex="1" parent="1">
          <mxGeometry x="10.46" y="140" width="210" height="30" as="geometry" />
        </mxCell>
        <mxCell id="a7qT2igJazvT0XZEEzCW-14" value="" style="rounded=0;whiteSpace=wrap;html=1;" vertex="1" parent="1">
          <mxGeometry x="30" y="180" width="200" height="70" as="geometry" />
        </mxCell>
        <mxCell id="a7qT2igJazvT0XZEEzCW-15" value="&lt;font style=&quot;font-size: 10px;&quot;&gt;Введенная матрица:&amp;nbsp;&lt;/font&gt;" style="text;html=1;align=center;verticalAlign=middle;whiteSpace=wrap;rounded=0;" vertex="1" parent="1">
          <mxGeometry x="30" y="180" width="110" height="20" as="geometry" />
        </mxCell>
        <mxCell id="a7qT2igJazvT0XZEEzCW-16" value="&amp;lt;&amp;lt;A[0][0]&amp;gt;&amp;gt;, &amp;lt;&amp;lt;A[0][1]&amp;gt;&amp;gt; ... &amp;lt;&amp;lt; A[0][m-1]&amp;gt;&amp;gt;&lt;div style=&quot;font-size: 10px;&quot;&gt;&amp;lt;&amp;lt;A[1][0] &amp;gt;&amp;gt; ... &amp;lt;&amp;lt;A[1][m-1]&amp;gt;&amp;gt;&lt;/div&gt;&lt;div style=&quot;font-size: 10px;&quot;&gt;&amp;lt;&amp;lt;A[n-1][0]&amp;gt;&amp;gt; ... &amp;lt;&amp;lt;A[n-1][m-1] &amp;gt;&amp;gt;&lt;/div&gt;" style="text;html=1;align=left;verticalAlign=middle;whiteSpace=wrap;rounded=0;fontSize=10;" vertex="1" parent="1">
          <mxGeometry x="35" y="205" width="240" height="30" as="geometry" />
        </mxCell>
        <mxCell id="a7qT2igJazvT0XZEEzCW-17" value="&lt;font style=&quot;font-size: 10px;&quot;&gt;При new_m = 0&lt;/font&gt;" style="text;html=1;align=center;verticalAlign=middle;resizable=0;points=[];autosize=1;strokeColor=none;fillColor=none;fontSize=10;" vertex="1" parent="1">
          <mxGeometry x="20" y="250" width="90" height="30" as="geometry" />
        </mxCell>
        <mxCell id="a7qT2igJazvT0XZEEzCW-18" value="Матрица пуста, нуля не было ни в одном из столбцов." style="rounded=0;whiteSpace=wrap;html=1;align=left;fontSize=10;" vertex="1" parent="1">
          <mxGeometry x="30" y="280" width="260" height="30" as="geometry" />
        </mxCell>
        <mxCell id="a7qT2igJazvT0XZEEzCW-19" value="" style="strokeWidth=2;html=1;shape=mxgraph.flowchart.annotation_2;align=left;labelPosition=right;pointerEvents=1;" vertex="1" parent="1">
          <mxGeometry x="20" y="275" width="9.54" height="40" as="geometry" />
        </mxCell>
        <mxCell id="a7qT2igJazvT0XZEEzCW-20" value="&lt;font style=&quot;font-size: 10px;&quot;&gt;Иначе&lt;/font&gt;" style="text;html=1;align=center;verticalAlign=middle;resizable=0;points=[];autosize=1;strokeColor=none;fillColor=none;" vertex="1" parent="1">
          <mxGeometry x="20" y="310" width="50" height="30" as="geometry" />
        </mxCell>
        <mxCell id="a7qT2igJazvT0XZEEzCW-24" value="&lt;font style=&quot;font-size: 10px;&quot;&gt;Измененная матрица:&lt;/font&gt;&lt;div&gt;&lt;div&gt;&lt;font style=&quot;font-size: 10px;&quot;&gt;&amp;lt;&amp;lt;A[0][0]&amp;gt;&amp;gt; ... &amp;lt;&amp;lt; A[0][new_m - 1]&amp;gt;&amp;gt;&lt;br&gt;&lt;div&gt;&lt;span style=&quot;background-color: initial;&quot;&gt;&amp;lt;&amp;lt;A[n-1][0]&amp;gt;&amp;gt;&lt;/span&gt;&amp;nbsp;...&amp;nbsp;&lt;span style=&quot;background-color: initial;&quot;&gt;&amp;lt;&amp;lt;A[n-1][new_m - 1] &amp;gt;&amp;gt;&lt;/span&gt;&lt;/div&gt;&lt;/font&gt;&lt;/div&gt;&lt;/div&gt;" style="rounded=0;whiteSpace=wrap;html=1;align=left;" vertex="1" parent="1">
          <mxGeometry x="29.54" y="340" width="195" height="50" as="geometry" />
        </mxCell>
      </root>
    </mxGraphModel>
  </diagram>
</mxfile>
